<svg viewBox="0 0 24 24" aria-hidden="true">
    <path d="M12 .5C5.65.5.5 5.65.5 12A11.5 11.5 0 0 0 8.36 22.93c.58.1.79-.25.79-.56v-2.16c-3.18.69-3.85-1.35-3.85-1.35-.52-1.32-1.27-1.68-1.27-1.68-1.04-.71.08-.7.08-.7 1.15.08 1.75 1.18 1.75 1.18 1.02 1.75 2.68 1.24 3.33.95.1-.74.4-1.24.72-1.52-2.54-.29-5.2-1.27-5.2-5.65 0-1.25.45-2.26 1.18-3.06-.12-.29-.51-1.46.11-3.04 0 0 .97-.31 3.18 1.17a11.08 11.08 0 0 1 5.8 0c2.2-1.48 3.17-1.17 3.17-1.17.63 1.58.24 2.75.12 3.04.73.8 1.18 1.81 1.18 3.06 0 4.39-2.67 5.36-5.22 5.64.41.36.78 1.07.78 2.16v3.2c0 .31.2.67.8.56A11.5 11.5 0 0 0 23.5 12C23.5 5.65 18.35.5 12 .5Z"/>
</svg>